<?xml version="1.0" encoding="UTF-8"?>
<svg id="Layer_1" data-name="Layer 1" xmlns="http://www.w3.org/2000/svg" viewBox="0 0 1149.71 1297.2">
  <defs>
    <style>
      .cls-1 {
        fill: #af2427;
        stroke-width: 0px;
      }
    </style>
  </defs>
  <path class="cls-1" d="M445.5,443.82l4.56-31.17c16.76.72,28.49-5.24,29.75-13.81,1.07-7.31,7.07-48.31,9.98-68.23-3.42-3.84-6.15-8.05-8.54-12.41-5.12-7.19-8.73-15.25-10.43-23.95l-3.36-.48,2.51-17.17.18.03c.44-4.03,1.22-8.14,2.53-12.34l-.89-.13,4.29-29.34h0s2.37-16.19,2.37-16.19c-7-3.24-13.32-7.39-18.8-12.27-4.17-1-8.65-1.78-13.59-2.48-18.68-2.68-33.67-5.96-37.65,21.25l-10.15,69.37-15.01-2.15c-10.33-1.48-19.76,4.36-22.23,13.22l-2.17-.31c-5.39-.77-10.34,2.54-11.05,7.4l-2.06,14.07-21.08-3.02.22-1.48c.71-4.86-3.08-9.42-8.48-10.2l-16.12-2.31,8.53-58.27c.71-4.86-3.08-9.42-8.48-10.2l-6.58-.94c-5.39-.77-10.34,2.54-11.05,7.4l-8.52,58.27-12.52-1.8c-5.39-.77-10.34,2.54-11.05,7.4l-5.99,40.95c-.71,4.86,3.08,9.43,8.48,10.2l12.52,1.79-8.53,58.27c-.71,4.86,3.08,9.42,8.48,10.2l6.58.94c5.39.77,10.34-2.54,11.05-7.4l8.52-58.27,16.12,2.31c5.39.77,10.34-2.54,11.05-7.4l.22-1.48,21.08,3.02-2.06,14.07c-.71,4.86,3.09,9.43,8.48,10.2l2.17.31c-.18,9.19,7.2,17.44,17.53,18.92l15.01,2.15-3.38,23.11c-34.65,1.26-60.91,13.2-63.56,31.28l-5.14,35.15c3.9,4.74,5.85,10.25,5.04,15.83-.81,5.58-4.27,10.32-9.37,13.77l-5.17,35.3c3.9,4.74,5.85,10.25,5.04,15.83-.82,5.58-4.27,10.32-9.37,13.77l-5.16,35.3c3.9,4.74,5.85,10.25,5.04,15.83-.82,5.58-4.27,10.32-9.37,13.77l-5.17,35.3c3.9,4.74,5.85,10.25,5.04,15.83-.82,5.58-4.27,10.32-9.37,13.77l-4.53,30.98c-2.56,17.52,17.75,35.78,48.91,46.84l-7.24,49.49c25.65,40.4-10.76,73.56-10.76,73.56-3.96,27.04,14.33,52.86,12.67,64.22-1.66,11.36,0,0-3.21,21.91-3.2,21.91,14.15,26.88,14.15,26.88,0,0,2.06-14.06,6.65-45.43,4.59-31.37,30.89-28.98,35.01-57.1,3.24-22.17,13.73-93.88,18.03-123.26,35.55-.89,62.71-12.94,65.4-31.33l4.53-30.98c-3.9-4.74-5.85-10.25-5.04-15.83.82-5.58,4.27-10.32,9.37-13.77l5.16-35.3c-3.9-4.74-5.85-10.25-5.04-15.83.82-5.58,4.27-10.32,9.37-13.77l5.16-35.3c-3.9-4.74-5.85-10.25-5.04-15.83.82-5.58,4.27-10.32,9.37-13.77l5.16-35.3c-3.9-4.74-5.85-10.25-5.04-15.83.82-5.58,4.27-10.32,9.37-13.77l5.14-35.15c2.55-17.43-17.56-35.6-48.47-46.68ZM296.82,242.25c3.81.55,6.7,2.38,6.45,4.1-.25,1.72-3.54,2.67-7.36,2.12-3.81-.55-6.7-2.38-6.45-4.1.25-1.72,3.55-2.67,7.36-2.12ZM285.71,247.01s1.68,4.23,7.38,5.05c0,0-10.84,18.63-16.06,54.31l8.68-59.36ZM247.44,354.64l6.17-42.2c.34-2.34,3.1-5.38,5.89-4.98l5.39.77s-6.07,2.61-17.46,46.42ZM259.78,424.28l8.68-59.36c-5.22,35.69-1.51,65.83-1.51,65.83-5.7-.82-7.17-6.47-7.17-6.47ZM300.21,314.15c-.46.76-1.49,1.61-2.93,2.21-2.88,1.27-7.26,1.57-11.44,1.02-4.21-.65-8.29-2.17-10.7-4.2-1.21-.99-1.96-2.09-2.18-2.95-.21-.9-.05-1.33-.09-1.35l.36.02s.05.12.15.35c.06.25.33.53.53.77.52.59,1.45,1.16,2.65,1.7,1.22.52,2.73,1,4.4,1.42.82.25,1.73.34,2.6.56.85.19,1.89.34,2.65.43,1.11.18,1.98.29,2.83.35.9.04,1.8.2,2.66.19,1.72.08,3.31.04,4.63-.12,1.31-.18,2.37-.47,3.03-.89.28-.22.6-.41.73-.6.16-.18.24-.27.24-.27l.36.05s-.03.51-.48,1.28ZM348.96,319.71l1.1-7.5c.44-2.98,3.1-5.06,5.96-4.65l4.47.64c-9.07.52-11.53,11.51-11.53,11.51ZM421.74,207.19s2.91.53,6.97,1.36c2.01.4,4.35.86,6.85,1.36,2.5.4,5.1.99,7.74,1.3,2.62.48,5.26.73,7.75,1.03,2.49.25,4.85.5,6.9.62,2.06.17,3.82.27,5.07.35,1.26.1,2.01.21,2.01.21l.1.32s-.69.13-1.88.35c-1.19.25-2.91.56-5.01.74-1.04.14-2.18.23-3.39.25-1.21.04-2.48.13-3.8.05-2.64-.04-5.46-.24-8.26-.68-5.59-.86-11-2.51-14.9-4.07-3.92-1.52-6.34-2.9-6.34-2.9l.18-.28ZM362.92,329.18l2.91-19.9c1.16-7.9,9.2-13.29,17.97-12.03l13.75,1.97c-27.78.85-34.64,29.96-34.64,29.96ZM329.86,890.18l-.15.96c-.45,2.49-1.15,5.12-1.9,7.72-.82,2.51-1.69,4.96-2.7,7.28-2,4.65-4.79,8.57-7.24,11.81-2.48,3.25-5.15,5.52-6.95,7.09-1.87,1.54-3.11,2.23-3.11,2.23l-.25-.24s4.14-3.51,8.45-10.12c2.16-3.28,4.34-7.31,6.13-11.82.9-2.25,1.66-4.63,2.38-7.07.62-2.45,1.21-4.95,1.6-7.51.27-1.27.37-2.53.52-3.81.17-1.27.28-2.54.29-3.81.14-2.53.04-5.03-.18-7.43-.46-4.82-1.63-9.26-3.11-12.91-1.47-3.66-3.22-6.53-4.59-8.43-1.38-1.92-2.36-2.86-2.36-2.86l.27-.22s1.22.81,2.91,2.61c1.62,1.82,3.98,4.53,5.8,8.28,1.79,3.71,3.63,8.29,4.24,13.36.31,2.53.5,5.15.43,7.81.03,1.33-.05,2.67-.18,4l-.17,2.01-.04.5-.04.33-.04.24ZM437.78,749.53c-2.17.05-4.81.12-7.84.19-3.03-.04-6.45-.09-10.18-.14-3.73,0-7.77-.18-12.05-.44-4.27-.22-8.78-.43-13.43-.9-4.65-.4-9.47-.78-14.33-1.41-4.88-.54-9.82-1.15-14.75-1.92-4.94-.69-9.84-1.55-14.67-2.42-4.84-.8-9.55-1.86-14.14-2.74-9.13-1.96-17.61-3.93-24.82-5.86-14.44-3.76-23.83-7.02-23.83-7.02l.12-.31s2.43.57,6.67,1.57c4.22,1.05,10.33,2.28,17.59,3.88,3.62.83,7.58,1.6,11.76,2.44,4.18.82,8.61,1.55,13.15,2.52,4.57.81,9.26,1.79,14.08,2.51,4.8.79,9.69,1.57,14.59,2.19,4.87.83,9.77,1.51,14.6,2.12,4.82.7,9.59,1.15,14.2,1.61,4.62.45,9.08.89,13.31,1.31,4.24.43,8.25.77,11.96.92,3.71.17,7.12.49,10.14.69,3.02.12,5.66.23,7.83.32,4.35.2,6.86.39,6.86.39l.02.33s-2.48.06-6.83.17ZM447.36,684.08c-2.18.05-4.81.12-7.84.19-3.03-.04-6.45-.09-10.18-.14-3.73,0-7.77-.18-12.05-.44-4.27-.22-8.78-.43-13.43-.9-4.66-.4-9.47-.78-14.33-1.41-4.88-.54-9.82-1.15-14.75-1.92-4.94-.69-9.84-1.55-14.67-2.42-4.84-.79-9.55-1.86-14.14-2.74-9.13-1.96-17.61-3.93-24.82-5.86-14.44-3.76-23.83-7.02-23.83-7.02l.12-.31s2.43.57,6.67,1.57c4.22,1.05,10.33,2.28,17.59,3.88,3.62.83,7.58,1.6,11.75,2.44,4.18.82,8.61,1.56,13.15,2.52,4.57.81,9.26,1.79,14.08,2.51,4.81.79,9.69,1.57,14.59,2.19,4.87.83,9.77,1.51,14.6,2.12,4.82.7,9.59,1.15,14.2,1.61,4.62.45,9.08.89,13.31,1.31,4.24.43,8.25.77,11.96.92,3.71.17,7.11.49,10.14.69,3.03.12,5.66.23,7.83.32,4.35.2,6.86.39,6.86.39l.03.33s-2.48.06-6.83.17ZM456.61,620.8c-2.17.05-4.81.12-7.84.19-3.03-.04-6.45-.09-10.18-.14-3.73,0-7.77-.18-12.05-.44-4.27-.22-8.78-.43-13.43-.9-4.65-.4-9.47-.78-14.33-1.41-4.88-.54-9.82-1.15-14.75-1.92-4.94-.69-9.84-1.55-14.67-2.42-4.84-.79-9.55-1.86-14.13-2.74-9.13-1.96-17.61-3.93-24.82-5.86-14.44-3.76-23.83-7.02-23.83-7.02l.12-.31s2.43.57,6.67,1.57c4.22,1.05,10.33,2.28,17.58,3.88,3.62.83,7.58,1.6,11.75,2.43,4.18.82,8.61,1.56,13.15,2.52,4.57.81,9.26,1.79,14.08,2.51,4.8.79,9.69,1.56,14.59,2.19,4.87.83,9.77,1.51,14.6,2.12,4.82.7,9.59,1.15,14.2,1.61,4.62.45,9.08.89,13.31,1.31,4.24.44,8.25.77,11.96.92,3.71.17,7.12.49,10.14.69,3.03.12,5.66.23,7.84.32,4.35.2,6.85.39,6.85.39l.03.33s-2.48.06-6.83.16ZM465.99,556.69c-2.17.05-4.81.12-7.84.19-3.03-.04-6.45-.09-10.18-.14-3.73,0-7.77-.18-12.05-.44-4.27-.22-8.78-.43-13.43-.9-4.65-.4-9.47-.78-14.33-1.41-4.88-.54-9.82-1.15-14.75-1.92-4.94-.69-9.84-1.55-14.67-2.42-4.84-.79-9.55-1.86-14.13-2.74-9.13-1.96-17.61-3.93-24.82-5.86-14.44-3.76-23.83-7.02-23.83-7.02l.12-.31s2.43.57,6.67,1.57c4.22,1.05,10.33,2.27,17.59,3.88,3.62.83,7.58,1.6,11.75,2.44,4.18.82,8.61,1.56,13.15,2.52,4.57.81,9.26,1.79,14.08,2.51,4.81.79,9.69,1.57,14.59,2.19,4.88.83,9.77,1.51,14.6,2.12,4.82.7,9.59,1.15,14.2,1.61,4.62.45,9.08.89,13.31,1.31,4.24.43,8.25.77,11.96.92,3.71.17,7.11.49,10.14.69,3.03.12,5.66.23,7.84.32,4.35.2,6.85.39,6.85.39l.03.33s-2.48.06-6.83.17ZM477.18,480.32c-2.17.06-4.81.12-7.84.2-3.03-.04-6.45-.08-10.18-.13-3.73,0-7.78-.17-12.05-.43-4.28-.22-8.79-.42-13.44-.89-4.66-.39-9.47-.77-14.34-1.4-4.88-.54-9.83-1.15-14.75-1.91-4.94-.69-9.85-1.56-14.68-2.43-4.84-.8-9.55-1.86-14.13-2.75-9.13-1.96-17.62-3.95-24.82-5.88-14.44-3.77-23.83-7.04-23.83-7.04l.17-.43s.61.13,1.77.36c1.14.25,2.85.51,4.98.99,1.24.27,2.69.56,4.23.87.08-.15.14-.3.24-.47.67-1.07,1.98-2.34,3.8-3.49,3.63-2.34,8.99-4.57,14.46-6.47,5.52-1.8,11.14-3.28,15.38-4.32,4.25-1.01,7.13-1.52,7.13-1.52l.19.64s-2.29,2.44-6.01,4.78c-1.83,1.24-4.05,2.41-6.42,3.57-2.39,1.12-4.98,2.13-7.58,3.02-2.62.86-5.25,1.6-7.73,2.2-2.51.55-4.8,1.06-6.8,1.42-.98.21-1.88.4-2.68.57-.64.19-1.22.33-1.74.51,3.29.63,7.04,1.32,11.22,2.13,3.65.69,7.61,1.43,11.79,2.22,4.18.75,8.59,1.55,13.15,2.37,9.14,1.49,18.84,3.29,28.61,4.58,4.86.82,9.75,1.48,14.56,2.07,4.81.65,9.54,1.26,14.14,1.77,4.59.56,9.04,1.03,13.26,1.44,4.22.44,8.22.88,11.92,1.14,3.7.26,7.1.67,10.12.96,3.03.2,5.66.38,7.83.52,4.36.32,6.87.61,6.87.61l.04.46s-2.48.06-6.83.17Z"/>
  <path class="cls-1" d="M1137.98,442.45l-1.68-35.2-36.87-90.5-6.7-5.03v-6.7l-31.84-45.25-28.49-36.87-60.33-51.95-48.6-31.84-11.73-5.03-33.52-16.76-72.07-30.17-98.88-21.79-77.09-6.7-3.35-3.35,11.73-33.52-5.03-11.73-16.76-8.38-21.79-1.68h-3.35l1.68,8.38-3.35,46.93-72.07,1.68-124.02,8.38-97.21,16.76-68.71,20.11-83.8,31.84-33.52,18.44-26.82,21.79-11.73,21.79-5.03,23.46,5.03,35.2,3.35,20.11,13.41,33.52,20.11,38.55,30.17,23.46,10.05-5.03-10.05-16.76-13.41-33.52,10.06-40.22,11.73-13.41,18.44-31.84,11.73-6.7,16.76-5.03,6.7-10.05,13.41-6.7,6.7-8.38,11.73-1.68,43.58-28.49h15.08l5.03-3.35,31.84-13.41,55.31-11.73,58.66-15.08,18.44-1.68,5.03-3.35,55.31-1.68,28.49-5.03,8.38-6.7,8.38,5.03h11.73l3.35,16.76-8.38,18.44,5.03,10.05-5.03,5.03-3.35,41.9-3.35,6.7,1.68,16.76-6.71,11.73v15.08l-5.03,46.93-8.38,53.63,1.68,10.06-5.03,8.38-5.03,55.31-10.06,62.01,1.68,6.7-5.03,5.03-13.41,92.18-10.05-1.68-65.36,6.71,2.69-13.45c-16.73,2.57-33.92.81-50.91-.28-21.09-1.35-38.91,3.12-58.52,7.88l-15.61,34.34-6.7,3.35-26.81,5.03-55.31,26.81-38.55,18.44-43.58,26.82-31.84,25.14-35.2,25.14-23.46,23.46-28.49,43.57-18.44,40.22-6.7,43.58,6.7,33.52,3.35,5.03,3.35,20.11,15.08,20.11,5.03,10.05,28.49,31.84,53.63,40.22,36.87,13.41,8.38,6.71,87.15,16.76,40.22,3.35h43.57l15.08,1.68,41.9-3.35,13.41-1.68,35.2-1.68-5.03,16.76-5.03,50.28-18.44,107.26,1.68,18.44,11.73,5.03,10.06-45.25,28.49-152.52,13.41-1.67,33.52-10.06,31.84-5.03,38.55-11.73,63.69-18.44,25.14-13.41,46.93-10.05,3.35-8.38,40.22-13.41,30.17-10.06,16.76-13.41,41.9-18.44,40.22-26.82,53.63-30.17,53.63-48.6,23.46-20.11,20.11-23.46,35.2-50.28,30.17-48.6,33.52-87.15,1.68-16.76,11.73-72.07v-33.52l-11.73-65.36ZM454.19,968.71l-5.03,28.49-11.73,55.31-45.25,6.7-68.71,5.03h-11.73l1.32-2.92c-3.8,1.04-7.78,1.69-11.97,1.8-3.44.09-6.37-.62-8.8-1.89-1.76,0-3.52-.21-5.21-.65l-.49,5.35-92.18-16.76-43.57-15.08-55.31-26.81-10.05-16.76-10.06-1.68-30.17-36.87-8.38-18.44-3.35-41.9,5.03-31.84,23.46-43.57,38.55-45.25,13.41-11.73,63.69-40.22,26.82-21.79,23.46-5.03,33.52-15.08,5.03-5.03,51.96-18.44h5.03l-1.44,11.53c34.85-12.97,71.02-22.82,108.29-24.36l.41-10.63,31.84-6.7,36.87-3.35h5.03l6.7,11.73-3.35,13.41,3.35,6.7-8.38,28.49-11.73,78.77-5.03,41.9-10.06,53.63-10.06,41.9-11.73,72.07ZM1052.51,521.22l-10.06,45.25-11.73,40.22-5.03,3.35-6.7,26.82-13.41,33.52-30.17,46.93-33.52,48.6-70.39,72.07-87.15,77.09h-6.7l-5.03,6.7-134.08,70.39-56.98,20.11-3.35,5.03-108.94,28.49,8.38-62.01,10.06-51.96,15.08-93.85,5.03-6.71-1.68-16.76,6.7-20.11v-6.7l8.38-36.87-3.35-6.7,5.03-5.03,20.11-120.67,58.66,5.03,60.33,11.73,15.08,5.03,16.76,10.06,21.79,11.73,26.82,23.46,11.73,43.57-13.41,33.52-30.17,31.84-38.55,16.76h-11.73l-8.38-5.03,5.03-11.73-5.03-6.7-8.38-23.46-35.2-13.41-13.41,1.68-25.14,13.41-10.06,30.17,6.7,13.41-1.68,8.38,21.79,28.49,21.79,10.06,30.17,8.38,5.03-1.68,38.55-3.35,41.9-15.08,43.57-26.82,21.79-31.84,8.38-35.2-3.35-31.84-16.76-36.87-30.17-31.84-30.17-20.11-23.46-11.73-43.58-13.41-88.83-15.08-11.73,1.68,1.68-40.22,5.03-13.41,10.05-67.04,8.38-50.28,5.03-50.28,8.38-46.93,33.52-212.85,8.38-3.35,13.41,1.68,20.11-3.35,41.9,8.38,48.6,5.03,21.79,5.03,35.2,8.38,11.73,6.7,31.84,6.7,23.46,13.41,11.73,1.68,16.76,8.38,15.08,15.08,16.76,3.35,18.44,20.11,46.93,51.96,16.76,30.17,6.7,1.68,3.35,15.08,10.06,20.11,10.06,38.55,5.03,16.76,3.35,65.36-6.7,73.74Z"/>
</svg>